<svg width="84" height="83" viewBox="0 0 84 83" fill="none" xmlns="http://www.w3.org/2000/svg">
<g id="ph:instagram-logo-thin">
<path id="Vector" d="M41.6667 27.2344C38.8339 27.2344 36.0647 28.071 33.7093 29.6386C31.3539 31.2061 29.5181 33.4341 28.434 36.0408C27.35 38.6475 27.0663 41.5158 27.619 44.2831C28.1716 47.0503 29.5358 49.5922 31.5389 51.5873C33.542 53.5824 36.0941 54.9411 38.8724 55.4915C41.6508 56.042 44.5307 55.7594 47.1478 54.6797C49.765 53.6 52.0019 51.7715 53.5758 49.4256C55.1496 47.0796 55.9896 44.3215 55.9896 41.5C55.9896 37.7165 54.4806 34.088 51.7945 31.4127C49.1085 28.7374 45.4654 27.2344 41.6667 27.2344ZM41.6667 53.1719C39.3489 53.1719 37.0832 52.4873 35.1561 51.2048C33.229 49.9223 31.7269 48.0994 30.84 45.9666C29.953 43.8339 29.7209 41.4871 30.1731 39.2229C30.6253 36.9588 31.7414 34.8791 33.3803 33.2467C35.0192 31.6144 37.1073 30.5028 39.3805 30.0524C41.6537 29.602 44.0099 29.8332 46.1513 30.7166C48.2926 31.6 50.1228 33.096 51.4105 35.0155C52.6981 36.9349 53.3854 39.1915 53.3854 41.5C53.3854 44.5956 52.1508 47.5644 49.9531 49.7533C47.7554 51.9422 44.7747 53.1719 41.6667 53.1719ZM55.9896 10.375H27.3438C22.8544 10.375 18.549 12.1512 15.3745 15.313C12.2001 18.4747 10.4167 22.763 10.4167 27.2344V55.7656C10.4167 57.9796 10.8545 60.172 11.7052 62.2174C12.5558 64.2629 13.8027 66.1215 15.3745 67.687C18.549 70.8487 22.8544 72.625 27.3438 72.625H55.9896C58.2125 72.625 60.4136 72.1889 62.4673 71.3417C64.521 70.4944 66.387 69.2525 67.9589 67.687C69.5307 66.1215 70.7775 64.2629 71.6282 62.2174C72.4789 60.172 72.9167 57.9796 72.9167 55.7656V27.2344C72.9167 25.0204 72.4789 22.828 71.6282 20.7826C70.7775 18.7371 69.5307 16.8785 67.9589 15.313C66.387 13.7475 64.521 12.5056 62.4673 11.6583C60.4136 10.8111 58.2125 10.375 55.9896 10.375ZM70.3125 55.7656C70.3125 59.5491 68.8035 63.1776 66.1174 65.8529C63.4314 68.5283 59.7883 70.0312 55.9896 70.0312H27.3438C23.5451 70.0312 19.902 68.5283 17.2159 65.8529C14.5299 63.1776 13.0209 59.5491 13.0209 55.7656V27.2344C13.0209 23.4509 14.5299 19.8224 17.2159 17.1471C19.902 14.4717 23.5451 12.9688 27.3438 12.9688H55.9896C59.7883 12.9688 63.4314 14.4717 66.1174 17.1471C68.8035 19.8224 70.3125 23.4509 70.3125 27.2344V55.7656ZM61.1979 24.6406C61.1979 25.1536 61.0452 25.6551 60.7591 26.0816C60.4729 26.5082 60.0662 26.8406 59.5903 27.0369C59.1145 27.2333 58.5909 27.2846 58.0857 27.1845C57.5806 27.0845 57.1165 26.8374 56.7523 26.4747C56.3881 26.1119 56.1401 25.6498 56.0396 25.1466C55.9392 24.6435 55.9907 24.122 56.1878 23.648C56.3849 23.1741 56.7187 22.769 57.147 22.484C57.5752 22.199 58.0787 22.0469 58.5938 22.0469C59.2844 22.0469 59.9468 22.3201 60.4352 22.8066C60.9236 23.293 61.1979 23.9527 61.1979 24.6406Z" fill="#27251F"/>
</g>
</svg>
