<svg width="83" height="83" viewBox="0 0 83 83" fill="none" xmlns="http://www.w3.org/2000/svg">
<g id="ph:telegram-logo-thin">
<path id="Vector" d="M74.1164 11.2832C73.5812 10.8209 72.9302 10.5133 72.2333 10.3933C71.5363 10.2733 70.8199 10.3456 70.1609 10.6023L10.3426 34.1082C9.56521 34.4175 8.90824 34.9691 8.46914 35.6813C8.03005 36.3934 7.83222 37.2282 7.90502 38.0617C7.97781 38.8952 8.31734 39.683 8.87324 40.3082C9.42914 40.9335 10.1718 41.3629 10.991 41.5328L27.2344 44.8074V64.8441C27.2245 65.616 27.4484 66.3728 27.8766 67.0151C28.3048 67.6574 28.9173 68.1552 29.6336 68.4429C30.1185 68.6359 30.6356 68.7349 31.1574 68.7347C31.6639 68.7353 32.1654 68.6352 32.6329 68.4404C33.1005 68.2456 33.5246 67.96 33.8809 67.6L43.1535 58.3273L56.8356 70.3558C57.5367 70.9906 58.4512 71.3378 59.3969 71.3285C59.8045 71.3274 60.2094 71.2618 60.5965 71.1339C61.2339 70.9248 61.8071 70.5557 62.2612 70.0618C62.7153 69.568 63.0352 68.966 63.1902 68.3132L75.3809 15.0765C75.5405 14.3891 75.5068 13.671 75.2837 13.0015C75.0605 12.332 74.6565 11.7373 74.1164 11.2832ZM10.4723 37.8367C10.4337 37.5557 10.4933 37.2699 10.641 37.0278C10.7886 36.7856 11.0153 36.6018 11.2828 36.5074L66.1406 14.9793L28.2395 42.3433L11.5098 39.0039C11.2311 38.9536 10.9774 38.8112 10.7893 38.5996C10.6012 38.3879 10.4896 38.1193 10.4723 37.8367ZM32.0328 65.7519C31.8567 65.935 31.6294 66.0607 31.3808 66.1128C31.1321 66.1648 30.8735 66.1408 30.6387 66.0437C30.3996 65.947 30.1948 65.7812 30.0504 65.5675C29.9061 65.3539 29.8287 65.102 29.8281 64.8441V46.5906L41.2082 56.6089L32.0328 65.7519ZM72.852 14.5254L60.6613 67.7296C60.6127 67.9503 60.5059 68.1539 60.3519 68.3192C60.198 68.4846 60.0026 68.6057 59.7859 68.6699C59.5767 68.7451 59.3507 68.7606 59.1332 68.7148C58.9156 68.669 58.7151 68.5637 58.5539 68.4105L30.6063 43.8347L72.6574 13.4554C72.7635 13.61 72.8356 13.7852 72.8691 13.9696C72.9026 14.154 72.8968 14.3434 72.852 14.5254Z" fill="#27251F"/>
</g>
</svg>
