<svg width="84" height="83" viewBox="0 0 84 83" fill="none" xmlns="http://www.w3.org/2000/svg">
<g id="iconoir:tiktok">
<g id="Group">
<path id="Vector" d="M72.9584 27.6667V55.3333C72.9584 59.9194 71.1366 64.3176 67.8938 67.5604C64.6509 70.8032 60.2527 72.625 55.6667 72.625H28C23.414 72.625 19.0158 70.8032 15.773 67.5604C12.5302 64.3176 10.7084 59.9194 10.7084 55.3333V27.6667C10.7084 23.0806 12.5302 18.6824 15.773 15.4396C19.0158 12.1968 23.414 10.375 28 10.375H55.6667C60.2527 10.375 64.6509 12.1968 67.8938 15.4396C71.1366 18.6824 72.9584 23.0806 72.9584 27.6667Z" stroke="#27251F" stroke-width="2.5" stroke-linecap="round" stroke-linejoin="round"/>
<path id="Vector_2" d="M34.9167 41.5C32.8647 41.5 30.8588 42.1085 29.1526 43.2485C27.4465 44.3885 26.1167 46.0089 25.3314 47.9047C24.5462 49.8004 24.3407 51.8865 24.741 53.8991C25.1414 55.9116 26.1295 57.7603 27.5805 59.2112C29.0314 60.6622 30.8801 61.6503 32.8926 62.0507C34.9052 62.451 36.9912 62.2455 38.887 61.4603C40.7828 60.675 42.4032 59.3452 43.5432 57.639C44.6832 55.9329 45.2917 53.927 45.2917 51.875V20.75C46.4433 24.2083 50.825 31.125 59.125 31.125" stroke="#27251F" stroke-width="2.5" stroke-linecap="round" stroke-linejoin="round"/>
</g>
</g>
</svg>
